<svg width="21" height="20" viewBox="0 0 21 20" fill="none" xmlns="http://www.w3.org/2000/svg">
<path d="M3.74403 17.9371L5.35266 16.64L5.36449 16.6309C5.69985 16.3605 5.86908 16.224 6.05789 16.1268C6.22728 16.0396 6.40791 15.9761 6.59424 15.9375C6.80426 15.8941 7.02304 15.8941 7.46219 15.8941H16.6255C17.8055 15.8941 18.3962 15.8941 18.8474 15.6624C19.2446 15.4584 19.5677 15.1326 19.7701 14.7322C20 14.2775 20 13.6828 20 12.4935V4.40108C20 3.21177 20 2.61622 19.7701 2.16152C19.5677 1.76117 19.2439 1.4359 18.8467 1.23191C18.3951 1 17.8048 1 16.6224 1H4.37798C3.19565 1 2.60404 1 2.15245 1.23191C1.75522 1.4359 1.4325 1.76117 1.2301 2.16152C1 2.61667 1 3.21293 1 4.40457V16.6082C1 17.7419 1 18.3087 1.23059 18.5998C1.43114 18.853 1.73513 19.0003 2.05659 19C2.42621 18.9996 2.86563 18.6453 3.74403 17.9371Z" stroke="#0C0C0C" stroke-width="2" stroke-linecap="round" stroke-linejoin="round"/>
</svg>
