<svg width="27" height="20" viewBox="0 0 27 20" fill="none" xmlns="http://www.w3.org/2000/svg">
<path d="M6.01269 5.15385H20.9884M6.01269 5.15385C5.2361 5.15385 4.84684 5.15385 4.55022 5.30476C4.28931 5.43751 4.07733 5.64917 3.94439 5.90971C3.79325 6.20589 3.79325 6.59391 3.79325 7.36937V14.5694C3.79325 16.1203 3.79325 16.8959 4.09552 17.4882C4.36141 18.0093 4.78536 18.433 5.30718 18.6985C5.89984 19 6.67607 19 8.22621 19H18.7727C20.3229 19 21.098 19 21.6906 18.6985C22.2125 18.433 22.6383 18.0092 22.9042 17.4882C23.2062 16.8964 23.2062 16.1223 23.2062 14.5744V7.3568C23.2062 6.58971 23.2062 6.20429 23.0559 5.90971C22.9229 5.64917 22.71 5.43751 22.4491 5.30476C22.1525 5.15385 21.765 5.15385 20.9884 5.15385M6.01269 5.15385H3.75901C2.58163 5.15385 1.99328 5.15385 1.65913 4.94832C1.21321 4.67404 0.960378 4.17187 1.00508 3.65081C1.03861 3.26001 1.38906 2.78738 2.0911 1.84101C2.29415 1.56729 2.39571 1.43039 2.51999 1.32587C2.68572 1.18651 2.88237 1.08753 3.09316 1.03751C3.25126 1 3.42095 1 3.76211 1H23.2366C23.5777 1 23.7479 1 23.906 1.03751C24.1168 1.08753 24.3134 1.18651 24.4791 1.32587C24.6034 1.43039 24.7053 1.56665 24.9083 1.84037C25.6104 2.78673 25.9614 3.25994 25.9949 3.65073C26.0396 4.17179 25.7859 4.67404 25.34 4.94832C25.0058 5.15385 24.4161 5.15385 23.2387 5.15385H20.9884M10.7264 12.0769H16.273" stroke="#0C0C0C" stroke-width="2" stroke-linecap="round" stroke-linejoin="round"/>
</svg>
