<svg width="20" height="20" viewBox="0 0 20 20" fill="none" xmlns="http://www.w3.org/2000/svg">
<path d="M19 15.6955V9.58492C19 8.9964 18.9995 8.70197 18.9264 8.42812C18.8616 8.18543 18.7553 7.95577 18.6114 7.74823C18.449 7.51404 18.2232 7.31984 17.7709 6.9323L12.3708 2.30639C11.5309 1.58686 11.1109 1.22727 10.6383 1.09043C10.2218 0.969856 9.77794 0.969856 9.36147 1.09043C8.88919 1.22717 8.46983 1.58641 7.63116 2.30486L2.22937 6.9323C1.77697 7.31984 1.5513 7.51404 1.38892 7.74823C1.24502 7.95577 1.13787 8.18543 1.07309 8.42812C1 8.70197 1 8.99639 1 9.58492V15.6955C1 16.7218 1 17.2348 1.17127 17.6396C1.39963 18.1794 1.83736 18.6087 2.38867 18.8323C2.80216 19 3.32634 19 4.37471 19C5.42308 19 5.94784 19 6.36133 18.8323C6.91264 18.6087 7.35025 18.1795 7.57861 17.6397C7.74988 17.2349 7.75 16.7217 7.75 15.6954V14.5939C7.75 13.3774 8.75736 12.3911 10 12.3911C11.2426 12.3911 12.25 13.3774 12.25 14.5939V15.6954C12.25 16.7217 12.25 17.2349 12.4213 17.6397C12.6496 18.1795 13.0874 18.6087 13.6387 18.8323C14.0522 19 14.5763 19 15.6247 19C16.6731 19 17.1978 19 17.6113 18.8323C18.1626 18.6087 18.6003 18.1794 18.8286 17.6396C18.9999 17.2348 19 16.7218 19 15.6955Z" stroke="#0C0C0C" stroke-width="2" stroke-linecap="round" stroke-linejoin="round"/>
</svg>
