<svg width="157" height="28" viewBox="0 0 157 28" fill="none" xmlns="http://www.w3.org/2000/svg">
<path d="M12.5384 18.3495C12.5384 20.0817 12.4266 21.5344 12.2031 22.6799C11.9796 23.8253 11.6444 24.7473 11.1974 25.4178C10.7504 26.0883 10.1916 26.5633 9.52109 26.8426C8.85058 27.122 8.09625 27.2617 7.20224 27.2617C6.41997 27.2617 5.72152 27.15 5.10689 26.9265C4.52019 26.703 3.98937 26.3956 3.54236 26.0045C3.09535 25.6413 2.76009 25.2222 2.45278 24.7473C2.1734 24.2724 1.92195 23.8253 1.75433 23.3504C1.5867 22.9034 1.44701 22.4564 1.39113 22.0373C1.33526 21.6182 1.27938 21.283 1.27938 21.0036H4.71575C4.71575 22.0932 4.93926 22.9034 5.35833 23.4622C5.7774 24.0209 6.33616 24.3003 7.00667 24.3003C7.3978 24.3003 7.70512 24.1885 7.95656 23.9371C8.208 23.6857 8.40357 23.3225 8.51532 22.8755C8.65501 22.4284 8.73883 21.8697 8.7947 21.2271C8.85058 20.5845 8.87852 19.8582 8.87852 19.0479V19.02C8.54326 19.0759 8.23594 19.1038 7.95656 19.1318C7.67718 19.1597 7.3978 19.1597 7.11842 19.1597C5.97296 19.1597 5.02307 18.9641 4.26875 18.573C3.51442 18.1819 2.89978 17.651 2.42484 17.0085C1.94989 16.3659 1.61464 15.6116 1.41907 14.8014C1.19557 13.9912 1.05588 13.1251 1.02794 12.259C1 11.9238 1 11.5885 1 11.2532C1 9.49315 1.25144 7.50956 1.75433 5.35833H5.47008C4.99513 7.3978 4.74369 9.18584 4.71575 10.7783C4.71575 10.8342 4.71575 10.918 4.71575 11.0018C4.71575 11.5885 4.74369 12.2031 4.82751 12.8178C4.91132 13.4324 5.05101 13.9912 5.30245 14.4941C5.52596 14.9969 5.86121 15.416 6.28028 15.7233C6.69935 16.0306 7.23017 16.1983 7.87275 16.1983C8.15213 16.1983 8.48738 16.1703 8.87852 16.0865V5.35833H12.5105V18.3495H12.5384Z" fill="#E466A5"/>
<path d="M23.099 23.7136C23.518 23.7136 23.965 23.6577 24.412 23.518C24.859 23.4063 25.2222 23.2386 25.5575 23.0151L27.15 25.8928C26.5074 26.2839 25.8089 26.5633 25.1105 26.7309C24.412 26.8985 23.6857 26.9823 22.9593 26.9823C22.4284 26.9823 21.8697 26.8985 21.283 26.703C20.6963 26.5074 20.1655 26.228 19.6626 25.8369C19.1597 25.4457 18.7127 24.9708 18.3216 24.3562C17.9304 23.7695 17.679 23.1828 17.5952 22.5961C17.4834 22.0094 17.4275 21.5065 17.4275 21.0595C17.4275 20.5845 17.4834 19.9699 17.5952 19.1876C17.7069 18.4054 18.0422 17.3996 18.6009 16.1703C18.8524 15.6116 19.1038 15.0249 19.4111 14.3544C19.6905 13.7118 19.9978 13.0413 20.2772 12.3428C20.5845 11.6723 20.8639 11.0018 21.1712 10.3313C21.4506 9.66078 21.73 9.04614 22.0094 8.48738H17.7069V11.4209H14.5499V5.30245H26.3118V8.31976L23.2945 14.2705C22.5681 15.6954 22.0373 17.0085 21.6462 18.1539C21.283 19.3273 21.0874 20.1096 21.0595 20.5287C21.0595 20.9477 21.0315 21.1712 21.0315 21.1992C21.0315 21.9814 21.1992 22.5681 21.5344 23.0151C21.8697 23.4622 22.4005 23.6577 23.099 23.6577V23.7136Z" fill="#E466A5"/>
<path d="M42.4041 5.38627V26.5353H38.7442V12.3708L32.3464 26.5353H28.6586V5.38627H32.3464V19.5229L38.7163 5.35833L42.4041 5.38627Z" fill="#E466A5"/>
<path d="M44.9744 22.7637H48.7181V26.5353H44.9744V22.7637Z" fill="#E466A5"/>
<path d="M59.558 5.24657C60.3403 5.24657 61.1226 5.35833 61.9048 5.55389C62.6871 5.7774 63.4135 6.08471 64.1399 6.50378C64.8663 6.92285 65.5368 7.42574 66.1514 8.04037C66.766 8.65501 67.2969 9.35346 67.7439 10.1357C68.1909 10.918 68.5541 11.812 68.8055 12.7898C69.057 13.7677 69.1967 14.8293 69.1967 15.9468C69.1967 17.0923 69.057 18.1819 68.8055 19.1597C68.5541 20.1375 68.1909 21.0315 67.7439 21.8138C67.2969 22.5961 66.766 23.2945 66.1514 23.9092C65.5368 24.5238 64.8663 25.0267 64.1399 25.4178C63.4135 25.8089 62.6871 26.1163 61.9048 26.3398C61.1226 26.5353 60.3403 26.6471 59.558 26.6471C58.7758 26.6471 57.9935 26.5353 57.2112 26.3398C56.429 26.1442 55.6747 25.8369 54.9762 25.4178C54.2498 25.0267 53.5793 24.4959 52.9647 23.9092C52.35 23.2945 51.8192 22.5961 51.3722 21.8138C50.9252 21.0315 50.562 20.1375 50.3106 19.1597C50.0591 18.1819 49.9194 17.1202 49.9194 15.9468C49.9194 14.8014 50.0591 13.7397 50.3106 12.7619C50.562 11.7841 50.9252 10.918 51.3722 10.1357C51.8192 9.35346 52.35 8.65501 52.9647 8.04037C53.5793 7.42574 54.2498 6.92285 54.9762 6.50378C55.7026 6.08471 56.429 5.7774 57.2112 5.55389C57.9935 5.33039 58.7758 5.24657 59.558 5.24657ZM59.558 23.6577C60.3124 23.6577 61.0388 23.4621 61.7372 23.1548C62.4077 22.8196 63.0224 22.3446 63.5252 21.6741C64.0281 21.0315 64.4472 20.2213 64.7545 19.2714C65.0618 18.3216 65.2015 17.204 65.2015 15.9468C65.2015 14.6896 65.0618 13.5721 64.7545 12.6222C64.4472 11.6723 64.0281 10.8621 63.5252 10.2195C63.0224 9.57696 62.4077 9.07408 61.7372 8.76676C61.0388 8.43151 60.3403 8.26388 59.558 8.26388C58.8037 8.26388 58.0773 8.45944 57.3789 8.76676C56.6804 9.10202 56.0937 9.57696 55.5629 10.2195C55.0321 10.8621 54.641 11.6723 54.3336 12.6222C54.0263 13.5721 53.8587 14.6896 53.8587 15.9468C53.8587 17.204 53.9984 18.3216 54.3336 19.2714C54.641 20.2213 55.06 21.0315 55.5629 21.6741C56.0937 22.3167 56.6804 22.8196 57.3789 23.1548C58.0494 23.4901 58.7758 23.6577 59.558 23.6577Z" fill="#7E7BE5"/>
<path d="M83.2215 5.38626V26.5353H79.2543V17.5952H74.7563V26.5353H70.7891V5.38626H74.7563V14.2705H79.2543V5.38626H83.2215Z" fill="#7E7BE5"/>
<path d="M99.7329 5.38627V26.5353H95.9333V9.71666L88.3621 26.5353H84.1993L93.7821 5.35833H97.9169V5.38627H99.7329Z" fill="#7E7BE5"/>
<path d="M123.955 17.8746C123.955 18.0701 123.955 18.2657 123.955 18.4612C123.955 18.8244 123.983 19.2715 124.011 19.7743C124.067 20.2772 124.151 20.7801 124.262 21.283C124.402 21.8138 124.542 22.2608 124.737 22.624C124.933 23.0151 125.129 23.2666 125.352 23.3783L123.48 26.8426C123.117 26.675 122.782 26.4515 122.474 26.1721C122.167 25.8928 121.916 25.5854 121.692 25.2502C121.469 24.9149 121.245 24.5238 121.105 24.1327C120.938 23.7415 120.798 23.3225 120.658 22.9313C120.1 23.518 119.513 24.0488 118.815 24.5517C118.144 25.0546 117.418 25.4737 116.635 25.8369C115.853 26.2001 115.015 26.4795 114.149 26.675C113.255 26.8706 112.333 27.0103 111.383 27.0382C111.271 27.0382 111.132 27.0382 111.02 27.0382C110.21 27.0382 109.399 26.9544 108.617 26.7588C107.835 26.5912 107.081 26.3118 106.382 25.9766C105.684 25.6134 105.041 25.2222 104.482 24.7473C103.924 24.2724 103.449 23.7695 103.058 23.2107C102.666 22.6519 102.359 22.0932 102.163 21.5065C101.968 20.9198 101.856 20.3331 101.856 19.7743C101.856 18.8244 102.024 18.0422 102.331 17.3717C102.638 16.7012 103.058 16.1703 103.532 15.7233C104.035 15.2763 104.594 14.9131 105.209 14.6617C105.823 14.3823 106.438 14.1867 107.081 14.047C107.695 13.9074 108.282 13.7956 108.841 13.7397C109.399 13.6839 109.846 13.628 110.21 13.6L110.405 13.5721C110.992 13.5162 111.662 13.4883 112.445 13.4324C113.199 13.4045 114.009 13.3765 114.875 13.3765C115.713 13.3486 116.579 13.3486 117.474 13.3486C118.368 13.3486 119.206 13.3486 120.016 13.3765C120.016 12.8178 119.82 12.259 119.457 11.6723C119.094 11.0856 118.563 10.5269 117.921 10.024C117.278 9.52109 116.496 9.12996 115.602 8.7947C114.708 8.48738 113.73 8.31976 112.696 8.31976C112.109 8.31976 111.523 8.37563 110.908 8.48738C110.293 8.59914 109.679 8.7947 109.036 9.04614C108.394 9.29759 107.779 9.63284 107.136 10.0519C106.494 10.471 105.851 10.9459 105.209 11.5326L102.666 9.24171C103.365 8.45945 104.119 7.78893 104.957 7.23017C105.795 6.67141 106.634 6.22441 107.528 5.86121C108.422 5.49802 109.288 5.24658 110.182 5.07895C111.048 4.91132 111.914 4.82751 112.696 4.82751C114.121 4.82751 115.378 4.9672 116.496 5.27452C117.613 5.58183 118.591 5.97296 119.429 6.44791C120.267 6.92286 120.994 7.48162 121.552 8.09625C122.139 8.71089 122.614 9.32552 122.977 9.9681C123.34 10.6107 123.62 11.2253 123.76 11.812C123.927 12.3987 124.011 12.9295 124.011 13.3765C124.011 13.3765 124.011 13.4045 123.983 13.4045C123.983 13.4045 123.955 13.4045 123.955 13.4324H123.983V17.8746H123.955ZM106.606 21.7579C107.304 22.4005 108.086 22.8475 108.924 23.1548C109.763 23.4622 110.657 23.6018 111.551 23.6018C112.528 23.6018 113.506 23.4342 114.456 23.1269C115.406 22.7916 116.3 22.3446 117.11 21.73C117.921 21.1433 118.591 20.4169 119.178 19.5788C119.736 18.7406 120.128 17.7907 120.295 16.757C119.485 16.757 118.619 16.7291 117.725 16.7291C116.831 16.7291 115.965 16.7291 115.099 16.757C114.233 16.785 113.422 16.785 112.668 16.8129C111.886 16.8408 111.215 16.8688 110.657 16.9247L110.433 16.9526C109.455 17.0364 108.673 17.1482 108.03 17.2879C107.416 17.4275 106.913 17.5952 106.55 17.8187C106.187 18.0422 105.935 18.3216 105.795 18.6289C105.656 18.9641 105.572 19.3273 105.572 19.8023C105.572 20.1655 105.656 20.5007 105.851 20.836C106.047 21.1712 106.298 21.4786 106.606 21.7859V21.7579Z" fill="#7E7BE5"/>
<path d="M136.807 4.04524H130.688L132.057 1H136.807V4.04524ZM140.606 5.38627V26.5353H136.946V12.3708L130.548 26.5353H126.889V5.38627H130.548V19.5508L136.946 5.38627L140.606 5.4142V5.38627Z" fill="#7E7BE5"/>
<path d="M156 5.38626V26.5353H152.033V17.5952H147.535V26.5353H143.596V5.38626H147.535V14.2705H152.033V5.38626H156Z" fill="#7E7BE5"/>
<path d="M12.5384 18.3495C12.5384 20.0817 12.4266 21.5344 12.2031 22.6799C11.9796 23.8253 11.6444 24.7473 11.1974 25.4178C10.7504 26.0883 10.1916 26.5633 9.52109 26.8426C8.85058 27.122 8.09625 27.2617 7.20224 27.2617C6.41997 27.2617 5.72152 27.15 5.10689 26.9265C4.52019 26.703 3.98937 26.3956 3.54236 26.0045C3.09535 25.6413 2.76009 25.2222 2.45278 24.7473C2.1734 24.2724 1.92195 23.8253 1.75433 23.3504C1.5867 22.9034 1.44701 22.4564 1.39113 22.0373C1.33526 21.6182 1.27938 21.283 1.27938 21.0036H4.71575C4.71575 22.0932 4.93926 22.9034 5.35833 23.4622C5.7774 24.0209 6.33616 24.3003 7.00667 24.3003C7.3978 24.3003 7.70512 24.1885 7.95656 23.9371C8.208 23.6857 8.40357 23.3225 8.51532 22.8755C8.65501 22.4284 8.73883 21.8697 8.7947 21.2271C8.85058 20.5845 8.87852 19.8582 8.87852 19.0479V19.02C8.54326 19.0759 8.23594 19.1038 7.95656 19.1318C7.67718 19.1597 7.3978 19.1597 7.11842 19.1597C5.97296 19.1597 5.02307 18.9641 4.26875 18.573C3.51442 18.1819 2.89978 17.651 2.42484 17.0085C1.94989 16.3659 1.61464 15.6116 1.41907 14.8014C1.19557 13.9912 1.05588 13.1251 1.02794 12.259C1 11.9238 1 11.5885 1 11.2532C1 9.49315 1.25144 7.50956 1.75433 5.35833H5.47008C4.99513 7.3978 4.74369 9.18584 4.71575 10.7783C4.71575 10.8342 4.71575 10.918 4.71575 11.0018C4.71575 11.5885 4.74369 12.2031 4.82751 12.8178C4.91132 13.4324 5.05101 13.9912 5.30245 14.4941C5.52596 14.9969 5.86121 15.416 6.28028 15.7233C6.69935 16.0306 7.23017 16.1983 7.87275 16.1983C8.15213 16.1983 8.48738 16.1703 8.87852 16.0865V5.35833H12.5105V18.3495H12.5384Z" stroke="#E466A5" stroke-width="0.321912" stroke-miterlimit="22.9256"/>
<path d="M23.099 23.7136C23.518 23.7136 23.965 23.6577 24.412 23.518C24.859 23.4063 25.2222 23.2386 25.5575 23.0151L27.15 25.8928C26.5074 26.2839 25.8089 26.5633 25.1105 26.7309C24.412 26.8985 23.6857 26.9823 22.9593 26.9823C22.4284 26.9823 21.8697 26.8985 21.283 26.703C20.6963 26.5074 20.1655 26.228 19.6626 25.8369C19.1597 25.4457 18.7127 24.9708 18.3216 24.3562C17.9304 23.7695 17.679 23.1828 17.5952 22.5961C17.4834 22.0094 17.4275 21.5065 17.4275 21.0595C17.4275 20.5845 17.4834 19.9699 17.5952 19.1876C17.7069 18.4054 18.0422 17.3996 18.6009 16.1703C18.8524 15.6116 19.1038 15.0249 19.4111 14.3544C19.6905 13.7118 19.9978 13.0413 20.2772 12.3428C20.5845 11.6723 20.8639 11.0018 21.1712 10.3313C21.4506 9.66078 21.73 9.04614 22.0094 8.48738H17.7069V11.4209H14.5499V5.30245H26.3118V8.31976L23.2945 14.2705C22.5681 15.6954 22.0373 17.0085 21.6462 18.1539C21.283 19.3273 21.0874 20.1096 21.0595 20.5287C21.0595 20.9477 21.0315 21.1712 21.0315 21.1992C21.0315 21.9814 21.1992 22.5681 21.5344 23.0151C21.8697 23.4622 22.4005 23.6577 23.099 23.6577V23.7136Z" stroke="#E466A5" stroke-width="0.321912" stroke-miterlimit="22.9256"/>
<path d="M42.4041 5.38627V26.5353H38.7442V12.3708L32.3464 26.5353H28.6586V5.38627H32.3464V19.5229L38.7163 5.35833L42.4041 5.38627Z" stroke="#E466A5" stroke-width="0.321912" stroke-miterlimit="22.9256"/>
<path d="M44.9744 22.7637H48.7181V26.5353H44.9744V22.7637Z" stroke="#E466A5" stroke-width="0.321912" stroke-miterlimit="22.9256"/>
<path d="M59.558 5.24657C60.3403 5.24657 61.1226 5.35833 61.9048 5.55389C62.6871 5.7774 63.4135 6.08471 64.1399 6.50378C64.8663 6.92285 65.5368 7.42574 66.1514 8.04037C66.766 8.65501 67.2969 9.35346 67.7439 10.1357C68.1909 10.918 68.5541 11.812 68.8055 12.7898C69.057 13.7677 69.1967 14.8293 69.1967 15.9468C69.1967 17.0923 69.057 18.1819 68.8055 19.1597C68.5541 20.1375 68.1909 21.0315 67.7439 21.8138C67.2969 22.5961 66.766 23.2945 66.1514 23.9092C65.5368 24.5238 64.8663 25.0267 64.1399 25.4178C63.4135 25.8089 62.6871 26.1163 61.9048 26.3398C61.1226 26.5353 60.3403 26.6471 59.558 26.6471C58.7758 26.6471 57.9935 26.5353 57.2112 26.3398C56.429 26.1442 55.6747 25.8369 54.9762 25.4178C54.2498 25.0267 53.5793 24.4959 52.9647 23.9092C52.35 23.2945 51.8192 22.5961 51.3722 21.8138C50.9252 21.0315 50.562 20.1375 50.3106 19.1597C50.0591 18.1819 49.9194 17.1202 49.9194 15.9468C49.9194 14.8014 50.0591 13.7397 50.3106 12.7619C50.562 11.7841 50.9252 10.918 51.3722 10.1357C51.8192 9.35346 52.35 8.65501 52.9647 8.04037C53.5793 7.42574 54.2498 6.92285 54.9762 6.50378C55.7026 6.08471 56.429 5.7774 57.2112 5.55389C57.9935 5.33039 58.7758 5.24657 59.558 5.24657ZM59.558 23.6577C60.3124 23.6577 61.0388 23.4621 61.7372 23.1548C62.4077 22.8196 63.0224 22.3446 63.5252 21.6741C64.0281 21.0315 64.4472 20.2213 64.7545 19.2714C65.0618 18.3216 65.2015 17.204 65.2015 15.9468C65.2015 14.6896 65.0618 13.5721 64.7545 12.6222C64.4472 11.6723 64.0281 10.8621 63.5252 10.2195C63.0224 9.57696 62.4077 9.07408 61.7372 8.76676C61.0388 8.43151 60.3403 8.26388 59.558 8.26388C58.8037 8.26388 58.0773 8.45944 57.3789 8.76676C56.6804 9.10202 56.0937 9.57696 55.5629 10.2195C55.0321 10.8621 54.641 11.6723 54.3336 12.6222C54.0263 13.5721 53.8587 14.6896 53.8587 15.9468C53.8587 17.204 53.9984 18.3216 54.3336 19.2714C54.641 20.2213 55.06 21.0315 55.5629 21.6741C56.0937 22.3167 56.6804 22.8196 57.3789 23.1548C58.0494 23.4901 58.7758 23.6577 59.558 23.6577Z" stroke="#7E7BE5" stroke-width="0.321912" stroke-miterlimit="22.9256"/>
<path d="M83.2215 5.38626V26.5353H79.2543V17.5952H74.7563V26.5353H70.7891V5.38626H74.7563V14.2705H79.2543V5.38626H83.2215Z" stroke="#7E7BE5" stroke-width="0.321912" stroke-miterlimit="22.9256"/>
<path d="M99.7329 5.38627V26.5353H95.9333V9.71666L88.3621 26.5353H84.1993L93.7821 5.35833H97.9169V5.38627H99.7329Z" stroke="#7E7BE5" stroke-width="0.321912" stroke-miterlimit="22.9256"/>
<path d="M123.955 17.8746C123.955 18.0701 123.955 18.2657 123.955 18.4612C123.955 18.8244 123.983 19.2715 124.011 19.7743C124.067 20.2772 124.151 20.7801 124.262 21.283C124.402 21.8138 124.542 22.2608 124.737 22.624C124.933 23.0151 125.129 23.2666 125.352 23.3783L123.48 26.8426C123.117 26.675 122.782 26.4515 122.474 26.1721C122.167 25.8928 121.916 25.5854 121.692 25.2502C121.469 24.9149 121.245 24.5238 121.105 24.1327C120.938 23.7415 120.798 23.3225 120.658 22.9313C120.1 23.518 119.513 24.0488 118.815 24.5517C118.144 25.0546 117.418 25.4737 116.635 25.8369C115.853 26.2001 115.015 26.4795 114.149 26.675C113.255 26.8706 112.333 27.0103 111.383 27.0382C111.271 27.0382 111.132 27.0382 111.02 27.0382C110.21 27.0382 109.399 26.9544 108.617 26.7588C107.835 26.5912 107.081 26.3118 106.382 25.9766C105.684 25.6134 105.041 25.2222 104.482 24.7473C103.924 24.2724 103.449 23.7695 103.058 23.2107C102.666 22.6519 102.359 22.0932 102.163 21.5065C101.968 20.9198 101.856 20.3331 101.856 19.7743C101.856 18.8244 102.024 18.0422 102.331 17.3717C102.638 16.7012 103.058 16.1703 103.532 15.7233C104.035 15.2763 104.594 14.9131 105.209 14.6617C105.823 14.3823 106.438 14.1867 107.081 14.047C107.695 13.9074 108.282 13.7956 108.841 13.7397C109.399 13.6839 109.846 13.628 110.21 13.6L110.405 13.5721C110.992 13.5162 111.662 13.4883 112.445 13.4324C113.199 13.4045 114.009 13.3765 114.875 13.3765C115.713 13.3486 116.579 13.3486 117.474 13.3486C118.368 13.3486 119.206 13.3486 120.016 13.3765C120.016 12.8178 119.82 12.259 119.457 11.6723C119.094 11.0856 118.563 10.5269 117.921 10.024C117.278 9.52109 116.496 9.12996 115.602 8.7947C114.708 8.48738 113.73 8.31976 112.696 8.31976C112.109 8.31976 111.523 8.37563 110.908 8.48738C110.293 8.59914 109.679 8.7947 109.036 9.04614C108.394 9.29759 107.779 9.63284 107.136 10.0519C106.494 10.471 105.851 10.9459 105.209 11.5326L102.666 9.24171C103.365 8.45945 104.119 7.78893 104.957 7.23017C105.795 6.67141 106.634 6.22441 107.528 5.86121C108.422 5.49802 109.288 5.24658 110.182 5.07895C111.048 4.91132 111.914 4.82751 112.696 4.82751C114.121 4.82751 115.378 4.9672 116.496 5.27452C117.613 5.58183 118.591 5.97296 119.429 6.44791C120.267 6.92286 120.994 7.48162 121.552 8.09625C122.139 8.71089 122.614 9.32552 122.977 9.9681C123.34 10.6107 123.62 11.2253 123.76 11.812C123.927 12.3987 124.011 12.9295 124.011 13.3765C124.011 13.3765 124.011 13.4045 123.983 13.4045C123.983 13.4045 123.955 13.4045 123.955 13.4324H123.983V17.8746H123.955ZM106.606 21.7579C107.304 22.4005 108.086 22.8475 108.924 23.1548C109.763 23.4622 110.657 23.6018 111.551 23.6018C112.528 23.6018 113.506 23.4342 114.456 23.1269C115.406 22.7916 116.3 22.3446 117.11 21.73C117.921 21.1433 118.591 20.4169 119.178 19.5788C119.736 18.7406 120.128 17.7907 120.295 16.757C119.485 16.757 118.619 16.7291 117.725 16.7291C116.831 16.7291 115.965 16.7291 115.099 16.757C114.233 16.785 113.422 16.785 112.668 16.8129C111.886 16.8408 111.215 16.8688 110.657 16.9247L110.433 16.9526C109.455 17.0364 108.673 17.1482 108.03 17.2879C107.416 17.4275 106.913 17.5952 106.55 17.8187C106.187 18.0422 105.935 18.3216 105.795 18.6289C105.656 18.9641 105.572 19.3273 105.572 19.8023C105.572 20.1655 105.656 20.5007 105.851 20.836C106.047 21.1712 106.298 21.4786 106.606 21.7859V21.7579Z" stroke="#7E7BE5" stroke-width="0.321912" stroke-miterlimit="22.9256"/>
<path d="M136.807 4.04524H130.688L132.057 1H136.807V4.04524ZM140.606 5.38627V26.5353H136.946V12.3708L130.548 26.5353H126.889V5.38627H130.548V19.5508L136.946 5.38627L140.606 5.4142V5.38627Z" stroke="#7E7BE5" stroke-width="0.321912" stroke-miterlimit="22.9256"/>
<path d="M156 5.38626V26.5353H152.033V17.5952H147.535V26.5353H143.596V5.38626H147.535V14.2705H152.033V5.38626H156Z" stroke="#7E7BE5" stroke-width="0.321912" stroke-miterlimit="22.9256"/>
</svg>
